<svg id="Layer_1" data-name="Layer 1" xmlns="http://www.w3.org/2000/svg" viewBox="0 0 1159.65 163.88"><defs><style>.cls-1{fill:#fff;}.cls-2{fill:#434343;}</style></defs><title>Artboard 3</title><polygon class="cls-1" points="124.17 11.81 124.17 161.58 21.37 54.12 21.37 152.91 0 152.91 0 2.3 102.8 109.75 102.8 11.81 124.17 11.81"/><polygon class="cls-1" points="248.07 31.91 191.6 31.91 192.17 65.76 246.39 65.76 246.39 85.85 192.29 85.85 191.6 132.81 248.07 132.81 248.07 152.91 170.23 152.91 170.23 11.81 248.07 11.81 248.07 31.91"/><path class="cls-1" d="M357.68,9.06h-.32c-.63,0-1.26,0-1.88,0l-1.85.08h-.2l-1.63.11-.37,0L350,9.47l-.26,0c-1.14.12-2.28.28-3.41.45a1.66,1.66,0,0,1-.22,0c-1.16.19-2.31.4-3.45.64-.59.13-1.19.25-1.78.39l-1.76.44c-.7.18-1.39.37-2.08.58-1.05.3-2.09.63-3.12,1l-1.7.6-1.67.64-1.67.68-1.63.72-1.63.76-1.6.79c-1,.51-2,1-2.95,1.6-.71.4-1.42.82-2.11,1.25l-1.1.69c-.53.33-1.06.68-1.58,1s-.92.62-1.37.95c-1.07.75-2.11,1.53-3.14,2.34-.36.28-.73.57-1.09.87a77.92,77.92,0,0,0-6.49,6c-.41.42-.82.84-1.21,1.28s-.79.86-1.18,1.31c-.75.85-1.48,1.71-2.19,2.59-.39.5-.78,1-1.16,1.49s-.71.94-1.05,1.42-.69.95-1,1.44c-.67,1-1.31,1.94-1.93,3s-1.22,2-1.79,3c-.29.51-.57,1-.84,1.55a72,72,0,0,0-4.23,9.74c-.2.56-.39,1.13-.56,1.69a69.74,69.74,0,0,0-2.24,9c-.2,1.09-.37,2.19-.52,3.29-.1.75-.19,1.51-.26,2.26-.1,1-.18,2-.24,3.07-.06,1.27-.1,2.55-.1,3.83,0,18.19,5.28,33.85,15.87,46.54,13.74,16.93,35.75,27.29,57.11,27.29h.74a75.41,75.41,0,0,0,38.31-10.78q2.28-1.38,4.45-2.9l1.43-1c.94-.7,1.88-1.42,2.78-2.17.45-.36.9-.74,1.35-1.12l0,0,1.3-1.15c.44-.39.87-.79,1.3-1.19l1.26-1.22,1.23-1.25,1.21-1.28,1.13-1.27.19-.21,1-1.17,1.11-1.36c.36-.46.72-.92,1.07-1.39s.68-.91,1-1.37.84-1.2,1.25-1.8l.74-1.12q1.38-2.16,2.63-4.39l.57-1.06.36-.69c.27-.52.54-1,.79-1.58q1.13-2.33,2.09-4.72c.12-.31.24-.61.35-.91s.24-.6.35-.91a72,72,0,0,0,2.55-8.51c.13-.55.25-1.11.36-1.67.26-1.23.49-2.48.68-3.73.09-.51.16-1,.22-1.54,0-.16.05-.32.06-.47.15-1.17.28-2.34.36-3.52.14-1.87.22-3.76.22-5.66A73.58,73.58,0,0,0,357.68,9.06Zm52,74.8c-.7,29.16-23.5,51.7-52.86,51.7-12.06,0-24.75-5.07-34.48-13.54C310.72,111.66,305,98.54,305,82c0-.92,0-1.86.07-2.81a52.21,52.21,0,0,1,52.38-50.07c28.7,0,50.83,21.83,52.19,50.51,0,1,.06,1.88.06,2.8C409.71,82.93,409.71,83.39,409.69,83.86Z"/><rect class="cls-2" x="501.98" width="5.5" height="163.88"/><path class="cls-1" d="M587.53,54.06H584V18.89h10.34a21.87,21.87,0,0,1,4.79.5A11,11,0,0,1,602.91,21a7.59,7.59,0,0,1,2.5,2.91,9.64,9.64,0,0,1,.9,4.37,8.59,8.59,0,0,1-2.59,6.28,9,9,0,0,1-2.83,1.87,12.31,12.31,0,0,1-3.57.89L607.6,54.06h-4.37l-9.74-16.44h-6Zm0-19.52h6.21A11.88,11.88,0,0,0,600.4,33a5.28,5.28,0,0,0,2.33-4.69,6.07,6.07,0,0,0-.64-2.93,5.38,5.38,0,0,0-1.79-1.94,8,8,0,0,0-2.78-1.09,17.75,17.75,0,0,0-3.63-.35h-6.36Z"/><path class="cls-1" d="M620.76,50.88h18.83v3.18h-22.4V18.89H639v3.18H620.76V34.14h17v3.18h-17Z"/><path class="cls-1" d="M649.82,54.06H645.9l15.2-35.17h3.48l15.1,35.17h-4l-3.88-9.24H653.65ZM655,41.54h15.5l-7.75-18.68Z"/><path class="cls-1" d="M691.9,50.88h16.39v3.18h-20V18.89h3.58Z"/><path class="cls-1" d="M735.42,50.88h18.82v3.18h-22.4V18.89h21.81v3.18H735.42V34.14h17v3.18h-17Z"/><path class="cls-1" d="M781.76,24.55A8.55,8.55,0,0,0,778.83,22a9,9,0,0,0-4.32-1,9.37,9.37,0,0,0-2.63.39,7.66,7.66,0,0,0-2.44,1.22,6.39,6.39,0,0,0-1.76,2.06,6.07,6.07,0,0,0-.67,2.93,5.37,5.37,0,0,0,.64,2.78,6.21,6.21,0,0,0,1.71,1.87,10,10,0,0,0,2.43,1.26c.91.34,1.86.67,2.85,1q1.83.6,3.69,1.29a13.23,13.23,0,0,1,3.34,1.81A8.32,8.32,0,0,1,785,44.82a9.29,9.29,0,0,1-3.61,7.7,10.87,10.87,0,0,1-3.66,1.84,14.81,14.81,0,0,1-4.15.59,15.6,15.6,0,0,1-3.18-.32,14.1,14.1,0,0,1-3-1,12.33,12.33,0,0,1-4.87-3.92l3.08-2.29a9.49,9.49,0,0,0,3.2,3.16,9.13,9.13,0,0,0,4.85,1.26,9.44,9.44,0,0,0,2.73-.42,7.67,7.67,0,0,0,2.51-1.29A7.18,7.18,0,0,0,780.75,48a5.86,5.86,0,0,0,.72-3,6,6,0,0,0-.72-3.06,6.3,6.3,0,0,0-1.92-2,11.62,11.62,0,0,0-2.73-1.37c-1-.36-2.1-.73-3.23-1.09s-2.3-.78-3.43-1.24a11.85,11.85,0,0,1-3-1.82,8.52,8.52,0,0,1-2.16-2.75,9.07,9.07,0,0,1-.82-4,8.88,8.88,0,0,1,1-4.37,9.27,9.27,0,0,1,2.66-3,11.29,11.29,0,0,1,3.63-1.74,14.87,14.87,0,0,1,3.92-.54,13.59,13.59,0,0,1,6.11,1.26,10.63,10.63,0,0,1,3.83,3Z"/><path class="cls-1" d="M806.6,54.06H803v-32H791.25V18.89h27.13v3.18H806.6Z"/><path class="cls-1" d="M823.89,54.06H820l15.2-35.17h3.47l15.1,35.17h-4l-3.87-9.24H827.71Zm5.17-12.52h15.5l-7.75-18.68Z"/><path class="cls-1" d="M870.68,54.06h-3.57v-32H855.33V18.89h27.13v3.18H870.68Z"/><path class="cls-1" d="M894.78,50.88H913.6v3.18H891.2V18.89H913v3.18H894.78V34.14h17v3.18h-17Z"/><path class="cls-1" d="M583.71,145h-3.93L595,109.81h3.48L613.56,145h-4l-3.88-9.24H587.53Zm5.16-12.52h15.5l-7.75-18.68Z"/><path class="cls-1" d="M648,116.17a12.92,12.92,0,0,0-4.37-3,14.92,14.92,0,0,0-5.82-1.07,14.36,14.36,0,0,0-6.08,1.24,13.76,13.76,0,0,0-4.6,3.35,14.71,14.71,0,0,0-2.9,4.88,17.31,17.31,0,0,0,0,11.71,14.52,14.52,0,0,0,2.9,4.86,14,14,0,0,0,4.6,3.32,14.36,14.36,0,0,0,6.08,1.24,21.31,21.31,0,0,0,5.47-.65,14,14,0,0,0,4-1.63V129.73H639.1v-3.17h11.77v15.88a22.37,22.37,0,0,1-6.21,2.59,27.66,27.66,0,0,1-6.91.85,19.05,19.05,0,0,1-7.35-1.39,17.4,17.4,0,0,1-5.81-3.85,17.61,17.61,0,0,1-3.8-5.84,20.53,20.53,0,0,1,0-14.8,17.43,17.43,0,0,1,9.67-9.69,18.72,18.72,0,0,1,7.27-1.39,19.65,19.65,0,0,1,7.36,1.26,15.79,15.79,0,0,1,5.36,3.51Z"/><path class="cls-1" d="M667.06,141.81h18.83V145h-22.4V109.81h21.8V113H667.06v12.08h17v3.17h-17Z"/><path class="cls-1" d="M721.31,139.77h.1v-30H725V145h-4.47l-20.46-30.26H700V145h-3.58V109.81h4.47Z"/><path class="cls-1" d="M749.08,145H745.5V113H733.73v-3.18h27.12V113H749.08Z"/><path class="cls-1" d="M791.2,136.84l7.9,8.15h-5l-5-5.22a15.24,15.24,0,0,1-4.72,4.4,12.4,12.4,0,0,1-6.11,1.41,14.15,14.15,0,0,1-4.25-.64,10.58,10.58,0,0,1-3.5-1.87,8.63,8.63,0,0,1-2.36-3,10.58,10.58,0,0,1-.25-7.77,9.75,9.75,0,0,1,1.71-2.86,12.63,12.63,0,0,1,2.59-2.26,20.63,20.63,0,0,1,3.22-1.74,22.3,22.3,0,0,1-1.56-1.74,15.33,15.33,0,0,1-1.37-2,11.67,11.67,0,0,1-1-2.16,7.72,7.72,0,0,1-.37-2.33,8.39,8.39,0,0,1,.7-3.53,7.67,7.67,0,0,1,1.88-2.61,8.07,8.07,0,0,1,2.79-1.61,10.14,10.14,0,0,1,3.37-.55,10.34,10.34,0,0,1,3.28.52A8,8,0,0,1,786,111a7.28,7.28,0,0,1,1.84,2.49,7.89,7.89,0,0,1,.67,3.35,7.08,7.08,0,0,1-.67,3.13,9.15,9.15,0,0,1-1.79,2.51,13.85,13.85,0,0,1-2.53,2c-1,.59-1.92,1.12-2.91,1.62l8.2,8.44,4.87-8.54h4Zm-13.71-9.14a13.35,13.35,0,0,0-4.82,3.4,7.25,7.25,0,0,0-1.64,4.79,6.49,6.49,0,0,0,.57,2.74,6.13,6.13,0,0,0,1.59,2.11,8,8,0,0,0,2.36,1.37,8.15,8.15,0,0,0,2.84.49,8.39,8.39,0,0,0,4.79-1.29,13.58,13.58,0,0,0,3.6-3.87Zm7.5-10.88a4.81,4.81,0,0,0-1.41-3.58,4.91,4.91,0,0,0-3.56-1.39,5.21,5.21,0,0,0-3.82,1.47,5.64,5.64,0,0,0-1.09,5.91,9.61,9.61,0,0,0,1,1.91,14.25,14.25,0,0,0,1.27,1.64,9.27,9.27,0,0,0,1.16,1.14,25.88,25.88,0,0,0,2.34-1.21,12.33,12.33,0,0,0,2.06-1.52,7,7,0,0,0,1.49-1.94A5.15,5.15,0,0,0,785,116.82Z"/><path class="cls-1" d="M837.65,139.27a15,15,0,0,1-2.16,2.54,13.85,13.85,0,0,1-2.93,2.1,16,16,0,0,1-3.68,1.44,17.4,17.4,0,0,1-4.4.53,19.09,19.09,0,0,1-7.35-1.39,17.4,17.4,0,0,1-5.81-3.85,17.61,17.61,0,0,1-3.8-5.84,19.57,19.57,0,0,1-1.37-7.4,19.2,19.2,0,0,1,1.4-7.4,17.37,17.37,0,0,1,9.66-9.69,19.22,19.22,0,0,1,11.08-1,17.93,17.93,0,0,1,3.5,1.14,14.9,14.9,0,0,1,3,1.76,10.14,10.14,0,0,1,2.23,2.31l-3,2.19a8.8,8.8,0,0,0-1.46-1.69,10.44,10.44,0,0,0-2.16-1.49,13.25,13.25,0,0,0-2.71-1,11.84,11.84,0,0,0-3.16-.4,14.5,14.5,0,0,0-6.13,1.24,13.74,13.74,0,0,0-4.6,3.34,14.83,14.83,0,0,0-2.88,4.88,17.22,17.22,0,0,0-1,5.84,16.77,16.77,0,0,0,1,5.84,15.05,15.05,0,0,0,2.9,4.88,13.74,13.74,0,0,0,4.6,3.34,14.36,14.36,0,0,0,6.08,1.24,13.8,13.8,0,0,0,5.77-1.24,10.93,10.93,0,0,0,4.57-4Z"/><path class="cls-1" d="M881.46,127.4a19.2,19.2,0,0,1-1.39,7.4,17.46,17.46,0,0,1-9.66,9.69,19.76,19.76,0,0,1-14.56,0,17.46,17.46,0,0,1-9.66-9.69,20.39,20.39,0,0,1,0-14.8,17.46,17.46,0,0,1,9.66-9.69,19.76,19.76,0,0,1,14.56,0,17.46,17.46,0,0,1,9.66,9.69A19.2,19.2,0,0,1,881.46,127.4Zm-3.77,0a17.1,17.1,0,0,0-1-5.86,14.5,14.5,0,0,0-2.88-4.88,13.82,13.82,0,0,0-4.59-3.35,15.55,15.55,0,0,0-12.17,0,13.76,13.76,0,0,0-4.6,3.35,14.5,14.5,0,0,0-2.88,4.88,17.81,17.81,0,0,0,0,11.71,14.31,14.31,0,0,0,2.88,4.86,14,14,0,0,0,4.6,3.32,15.55,15.55,0,0,0,12.17,0,14,14,0,0,0,4.59-3.32,14.31,14.31,0,0,0,2.88-4.86A17,17,0,0,0,877.69,127.43Z"/><path class="cls-1" d="M917.33,139.77h.1v-30H921V145h-4.48l-20.46-30.26H896V145h-3.58V109.81h4.47Z"/><path class="cls-1" d="M950.86,115.48a8.64,8.64,0,0,0-2.93-2.56,8.9,8.9,0,0,0-4.32-1,9.15,9.15,0,0,0-2.64.4,7.51,7.51,0,0,0-2.43,1.22,6,6,0,0,0-2.43,5,5.42,5.42,0,0,0,.64,2.78,6.06,6.06,0,0,0,1.71,1.86,9.64,9.64,0,0,0,2.43,1.27c.91.33,1.85.66,2.85,1q1.83.6,3.69,1.29a13.43,13.43,0,0,1,3.34,1.82,8.79,8.79,0,0,1,2.43,2.83,9,9,0,0,1,.94,4.35,9.63,9.63,0,0,1-1,4.54,9.36,9.36,0,0,1-2.6,3.15,10.74,10.74,0,0,1-3.67,1.84,14.77,14.77,0,0,1-4.15.6,16.33,16.33,0,0,1-3.18-.32,14.68,14.68,0,0,1-3-1,12.51,12.51,0,0,1-2.68-1.64,11.28,11.28,0,0,1-2.18-2.29l3.08-2.28a9.37,9.37,0,0,0,3.2,3.15,9,9,0,0,0,4.84,1.27,9.46,9.46,0,0,0,2.74-.42,7.62,7.62,0,0,0,2.5-1.29,7.16,7.16,0,0,0,1.84-2.14,6.63,6.63,0,0,0,0-6,6.52,6.52,0,0,0-1.91-2,12,12,0,0,0-2.73-1.36c-1-.37-2.11-.73-3.23-1.1s-2.3-.77-3.43-1.24a11.49,11.49,0,0,1-3-1.81,8.67,8.67,0,0,1-2.16-2.76,10.05,10.05,0,0,1,.2-8.39,9.19,9.19,0,0,1,2.66-3,11.11,11.11,0,0,1,3.62-1.73,14.61,14.61,0,0,1,3.93-.55,13.48,13.48,0,0,1,6.11,1.27,10.38,10.38,0,0,1,3.82,3Z"/><path class="cls-1" d="M978.28,145.88a13.67,13.67,0,0,1-6.51-1.37,11.55,11.55,0,0,1-4-3.45,12.7,12.7,0,0,1-2.06-4.54,20.63,20.63,0,0,1-.57-4.65V109.81h3.57v21.66a17.27,17.27,0,0,0,.5,4.15,10.26,10.26,0,0,0,1.62,3.58,8.2,8.2,0,0,0,3,2.53,11,11,0,0,0,9,0,8.32,8.32,0,0,0,3-2.53,10.42,10.42,0,0,0,1.61-3.58,17.27,17.27,0,0,0,.5-4.15V109.81h3.57v22.06a20.63,20.63,0,0,1-.57,4.65,12.53,12.53,0,0,1-2.06,4.54,11.48,11.48,0,0,1-4,3.45A13.65,13.65,0,0,1,978.28,145.88Z"/><path class="cls-1" d="M1007.64,141.81H1024V145h-20V109.81h3.58Z"/><path class="cls-1" d="M1039.38,145h-3.57V113H1024v-3.18h27.13V113h-11.78Z"/><path class="cls-1" d="M1056.67,145h-3.92l15.2-35.18h3.47l15.1,35.18h-4l-3.87-9.24h-18.19Zm5.17-12.52h15.5l-7.75-18.68Z"/><path class="cls-1" d="M1120.11,139.77h.09v-30h3.58V145h-4.47l-20.47-30.26h-.1V145h-3.57V109.81h4.47Z"/><path class="cls-1" d="M1147.87,145h-3.57V113h-11.78v-3.18h27.13V113h-11.78Z"/></svg>