<svg id="Layer_1" data-name="Layer 1" class="logo my-4 ml-3" xmlns="http://www.w3.org/2000/svg" viewBox="0 0 1215.43 214.41"><defs><style>.cls-1,.cls-2,.cls-3,.cls-4{fill:none;stroke:#fff;stroke-miterlimit:10;}.cls-1{stroke-width:21px;}.cls-2{stroke-width:22px;}.cls-3{stroke-width:5px;}.cls-4{stroke-width:1.5px;}</style></defs><title>Artboard 7</title><ellipse class="cls-1" cx="386.6" cy="105.76" rx="63.01" ry="63.11"/><polyline class="cls-2" points="143.11 35.14 143.11 158.84 39.24 51.03 39.24 176.23"/><polyline class="cls-2" points="275.61 99.13 210.16 99.13 210.16 166.19 277.29 166.19"/><polyline class="cls-2" points="277.29 45.19 210.16 45.19 210.16 99.13"/><line class="cls-3" x1="533.94" y1="187.2" x2="533.94" y2="23.33"/><path class="cls-4" d="M617.51,77.39h-3.57V42.22h10.33a21.89,21.89,0,0,1,4.79.49,10.71,10.71,0,0,1,3.83,1.62,7.58,7.58,0,0,1,2.51,2.9,9.81,9.81,0,0,1,.89,4.37,8.75,8.75,0,0,1-.69,3.53,8.91,8.91,0,0,1-1.89,2.76,9,9,0,0,1-2.83,1.86,12.38,12.38,0,0,1-3.58.9l10.28,16.74h-4.37l-9.73-16.45h-6Zm0-19.53h6.21a12,12,0,0,0,6.66-1.56,5.27,5.27,0,0,0,2.34-4.7,6.13,6.13,0,0,0-.65-2.93,5.26,5.26,0,0,0-1.79-1.93,8.25,8.25,0,0,0-2.78-1.1,17.64,17.64,0,0,0-3.63-.34h-6.36Z"/><path class="cls-4" d="M650.75,74.21h18.83v3.18H647.17V42.22H669V45.4H650.75V57.47h17v3.18h-17Z"/><path class="cls-4" d="M679.81,77.39h-3.93l15.21-35.17h3.47l15.1,35.17h-4l-3.87-9.24H683.63ZM685,64.87h15.49l-7.75-18.68Z"/><path class="cls-4" d="M721.88,74.21h16.4v3.18h-20V42.22h3.57Z"/><path class="cls-4" d="M765.4,74.21h18.83v3.18H761.82V42.22h21.81V45.4H765.4V57.47h17v3.18h-17Z"/><path class="cls-4" d="M811.75,47.88a8.64,8.64,0,0,0-2.93-2.56,8.92,8.92,0,0,0-4.32-1,9.1,9.1,0,0,0-2.64.4A7.51,7.51,0,0,0,799.43,46,6,6,0,0,0,797,51a5.42,5.42,0,0,0,.64,2.78,6.06,6.06,0,0,0,1.71,1.86,9.64,9.64,0,0,0,2.43,1.27c.9.33,1.85.66,2.84,1q1.85.6,3.69,1.29A13.32,13.32,0,0,1,811.66,61a8.79,8.79,0,0,1,2.43,2.83,9,9,0,0,1,.94,4.35,9.4,9.4,0,0,1-3.61,7.7,11,11,0,0,1-3.67,1.83,14.77,14.77,0,0,1-4.15.6,16.33,16.33,0,0,1-3.18-.32,14.68,14.68,0,0,1-3-1,12.51,12.51,0,0,1-2.68-1.64,11.61,11.61,0,0,1-2.19-2.29l3.08-2.28a9.41,9.41,0,0,0,3.21,3.15,9,9,0,0,0,4.84,1.27,9.34,9.34,0,0,0,2.73-.42,7.57,7.57,0,0,0,2.51-1.29,7.16,7.16,0,0,0,1.84-2.14,5.86,5.86,0,0,0,.72-2.95,5.92,5.92,0,0,0-.72-3.06,6.52,6.52,0,0,0-1.91-2,12,12,0,0,0-2.73-1.36c-1-.37-2.11-.73-3.23-1.1s-2.31-.77-3.43-1.24a11.49,11.49,0,0,1-3-1.81A8.4,8.4,0,0,1,794.24,55a8.86,8.86,0,0,1-.82-4,8.85,8.85,0,0,1,1-4.37,9.14,9.14,0,0,1,2.65-3,11.07,11.07,0,0,1,3.63-1.74,14.54,14.54,0,0,1,3.92-.55,13.42,13.42,0,0,1,6.11,1.27,10.53,10.53,0,0,1,3.83,3Z"/><path class="cls-4" d="M836.59,77.39H833v-32H821.24V42.22h27.12V45.4H836.59Z"/><path class="cls-4" d="M853.87,77.39H850l15.2-35.17h3.48l15.1,35.17h-4l-3.87-9.24H857.7ZM859,64.87h15.5l-7.75-18.68Z"/><path class="cls-4" d="M900.67,77.39h-3.58v-32H885.32V42.22h27.12V45.4H900.67Z"/><path class="cls-4" d="M924.76,74.21h18.83v3.18H921.18V42.22H943V45.4H924.76V57.47h17v3.18h-17Z"/><path class="cls-4" d="M613.69,168.31h-3.92L625,133.14h3.47l15.11,35.17h-4l-3.87-9.24H617.51Zm5.17-12.52h15.5l-7.75-18.68Z"/><path class="cls-4" d="M678,139.5a12.89,12.89,0,0,0-4.37-3,14.9,14.9,0,0,0-5.81-1.06,14.41,14.41,0,0,0-6.09,1.24,13.8,13.8,0,0,0-4.59,3.34,15.05,15.05,0,0,0-2.91,4.89,17.29,17.29,0,0,0,0,11.7,14.61,14.61,0,0,0,2.91,4.86,14.06,14.06,0,0,0,4.59,3.33,14.56,14.56,0,0,0,6.09,1.24,21.74,21.74,0,0,0,5.46-.65,14,14,0,0,0,4-1.64V153.06h-8.2v-3.18h11.77v15.89a23,23,0,0,1-6.21,2.59,28.11,28.11,0,0,1-6.9.85,19.06,19.06,0,0,1-7.35-1.4,17.15,17.15,0,0,1-5.82-3.85,17.47,17.47,0,0,1-3.8-5.83,19.57,19.57,0,0,1-1.36-7.4,19.25,19.25,0,0,1,1.39-7.41,17.48,17.48,0,0,1,9.66-9.68,18.77,18.77,0,0,1,7.28-1.39,19.64,19.64,0,0,1,7.35,1.26,15.7,15.7,0,0,1,5.36,3.51Z"/><path class="cls-4" d="M697.05,165.13h18.82v3.18h-22.4V133.14h21.81v3.18H697.05v12.07h17v3.18h-17Z"/><path class="cls-4" d="M751.29,163.1h.1v-30H755v35.17H750.5L730,138.06h-.1v30.25h-3.57V133.14h4.47Z"/><path class="cls-4" d="M779.06,168.31h-3.58v-32H763.71v-3.18h27.13v3.18H779.06Z"/><path class="cls-4" d="M821.19,160.17l7.89,8.14h-5l-5-5.21a15.2,15.2,0,0,1-4.72,4.39,12.3,12.3,0,0,1-6.11,1.42,13.84,13.84,0,0,1-4.25-.65,10.56,10.56,0,0,1-3.5-1.86,8.74,8.74,0,0,1-2.36-3,9.61,9.61,0,0,1-.87-4.2,9.47,9.47,0,0,1,2.34-6.43,12.28,12.28,0,0,1,2.58-2.26,20.29,20.29,0,0,1,3.23-1.74c-.53-.53-1-1.11-1.57-1.74a16,16,0,0,1-1.36-2,11.05,11.05,0,0,1-1-2.16,7.44,7.44,0,0,1-.37-2.34,8.5,8.5,0,0,1,.69-3.52,7.69,7.69,0,0,1,1.89-2.61,8,8,0,0,1,2.78-1.62,10.45,10.45,0,0,1,3.38-.54,10.11,10.11,0,0,1,3.28.52,8.06,8.06,0,0,1,2.71,1.54,7.32,7.32,0,0,1,1.83,2.48,8,8,0,0,1,.67,3.36,7,7,0,0,1-.67,3.12,9,9,0,0,1-1.78,2.51,13.54,13.54,0,0,1-2.54,2c-.94.58-1.91,1.12-2.9,1.61l8.19,8.45,4.87-8.55h4ZM807.48,151a13.4,13.4,0,0,0-4.82,3.41,7.18,7.18,0,0,0-1.64,4.79,6.45,6.45,0,0,0,.57,2.73,6,6,0,0,0,1.59,2.11,7.66,7.66,0,0,0,2.36,1.37,8.1,8.1,0,0,0,2.83.5,8.37,8.37,0,0,0,4.79-1.29,13.49,13.49,0,0,0,3.6-3.88Zm7.5-10.87a4.81,4.81,0,0,0-5-5,5.07,5.07,0,0,0-5.32,5.41,5.45,5.45,0,0,0,.4,2,10.88,10.88,0,0,0,1,1.92,15.17,15.17,0,0,0,1.27,1.64,11.92,11.92,0,0,0,1.17,1.14c.79-.37,1.57-.77,2.33-1.22a12.23,12.23,0,0,0,2.07-1.51,7.39,7.39,0,0,0,1.49-1.94A5.18,5.18,0,0,0,815,140.15Z"/><path class="cls-4" d="M867.63,162.6a14.49,14.49,0,0,1-5.09,4.64,16.9,16.9,0,0,1-3.67,1.44,17.45,17.45,0,0,1-4.4.53,19.06,19.06,0,0,1-7.35-1.4A17.15,17.15,0,0,1,841.3,164a17.62,17.62,0,0,1-3.8-5.83,19.57,19.57,0,0,1-1.36-7.4,19.25,19.25,0,0,1,1.39-7.41,17.48,17.48,0,0,1,9.66-9.68,18.77,18.77,0,0,1,7.28-1.39,17.89,17.89,0,0,1,7.3,1.54,14.59,14.59,0,0,1,3,1.75,10.44,10.44,0,0,1,2.24,2.32l-3,2.19a8.93,8.93,0,0,0-1.47-1.69,9.59,9.59,0,0,0-2.16-1.49,13.88,13.88,0,0,0-2.71-1.05,12.19,12.19,0,0,0-3.15-.39,14.7,14.7,0,0,0-6.14,1.23,13.82,13.82,0,0,0-4.59,3.35,14.45,14.45,0,0,0-2.88,4.87,17,17,0,0,0-1,5.85,16.81,16.81,0,0,0,1,5.84,15,15,0,0,0,2.91,4.88,13.94,13.94,0,0,0,4.59,3.34,14.6,14.6,0,0,0,6.09,1.24,13.73,13.73,0,0,0,5.76-1.25,10.85,10.85,0,0,0,4.57-4Z"/><path class="cls-4" d="M911.45,150.73a19.39,19.39,0,0,1-1.39,7.4,17.46,17.46,0,0,1-9.67,9.68,19.6,19.6,0,0,1-14.55,0,17.48,17.48,0,0,1-9.66-9.68,20.42,20.42,0,0,1,0-14.81,17.48,17.48,0,0,1,9.66-9.68,19.73,19.73,0,0,1,14.55,0,17.46,17.46,0,0,1,9.67,9.68A19.44,19.44,0,0,1,911.45,150.73Zm-3.78,0a17.28,17.28,0,0,0-1-5.85A15,15,0,0,0,903.8,140a13.74,13.74,0,0,0-4.6-3.34,15.55,15.55,0,0,0-12.17,0,13.7,13.7,0,0,0-4.59,3.34,14.83,14.83,0,0,0-2.89,4.89,17.78,17.78,0,0,0,0,11.7,14.4,14.4,0,0,0,2.89,4.86,14,14,0,0,0,4.59,3.33,15.55,15.55,0,0,0,12.17,0,14,14,0,0,0,4.6-3.33,14.54,14.54,0,0,0,2.88-4.86A17.28,17.28,0,0,0,907.67,150.75Z"/><path class="cls-4" d="M947.31,163.1h.1v-30H951v35.17h-4.47l-20.47-30.25H926v30.25h-3.57V133.14h4.47Z"/><path class="cls-4" d="M980.84,138.8a8.42,8.42,0,0,0-2.93-2.55,8.9,8.9,0,0,0-4.32-1,9.37,9.37,0,0,0-2.63.39,7.87,7.87,0,0,0-2.44,1.22,6.39,6.39,0,0,0-1.76,2.06,6.07,6.07,0,0,0-.67,2.93,5.44,5.44,0,0,0,.64,2.79,6.17,6.17,0,0,0,1.71,1.86,10,10,0,0,0,2.43,1.26c.91.34,1.86.67,2.85,1q1.83.6,3.69,1.29a13.23,13.23,0,0,1,3.34,1.81,8.32,8.32,0,0,1,3.37,7.18,9.29,9.29,0,0,1-3.61,7.7,10.87,10.87,0,0,1-3.66,1.84,14.82,14.82,0,0,1-4.15.6,15.61,15.61,0,0,1-3.18-.33,14.1,14.1,0,0,1-3-1,12.33,12.33,0,0,1-4.87-3.92l3.08-2.29a9.4,9.4,0,0,0,3.2,3.16,9.52,9.52,0,0,0,7.58.84,7.67,7.67,0,0,0,2.51-1.29,7.18,7.18,0,0,0,1.84-2.14,5.84,5.84,0,0,0,.72-3,5.91,5.91,0,0,0-.72-3,6.24,6.24,0,0,0-1.92-2,11.62,11.62,0,0,0-2.73-1.37c-1-.36-2.1-.73-3.23-1.09s-2.3-.78-3.43-1.24a11.85,11.85,0,0,1-3-1.82,8.52,8.52,0,0,1-2.16-2.75,9.07,9.07,0,0,1-.82-4,8.88,8.88,0,0,1,1-4.37,9.37,9.37,0,0,1,2.66-3,11.29,11.29,0,0,1,3.63-1.74,14.87,14.87,0,0,1,3.92-.54,13.59,13.59,0,0,1,6.11,1.26,10.63,10.63,0,0,1,3.83,3Z"/><path class="cls-4" d="M1008.26,169.21a13.65,13.65,0,0,1-6.5-1.37,11.68,11.68,0,0,1-4-3.45,12.75,12.75,0,0,1-2.06-4.55,20.62,20.62,0,0,1-.57-4.64V133.14h3.58V154.8a17.33,17.33,0,0,0,.49,4.15,10.21,10.21,0,0,0,1.62,3.57,8.31,8.31,0,0,0,3,2.54,11,11,0,0,0,9,0,8.31,8.31,0,0,0,3-2.54,10.39,10.39,0,0,0,1.62-3.57,17.33,17.33,0,0,0,.49-4.15V133.14h3.58V155.2a20.62,20.62,0,0,1-.57,4.64,12.75,12.75,0,0,1-2.06,4.55,11.66,11.66,0,0,1-4,3.45A13.72,13.72,0,0,1,1008.26,169.21Z"/><path class="cls-4" d="M1037.62,165.13H1054v3.18h-20V133.14h3.57Z"/><path class="cls-4" d="M1069.37,168.31h-3.58v-32H1054v-3.18h27.12v3.18h-11.77Z"/><path class="cls-4" d="M1086.65,168.31h-3.92l15.2-35.17h3.48l15.1,35.17h-4l-3.88-9.24h-18.18Zm5.17-12.52h15.5l-7.75-18.68Z"/><path class="cls-4" d="M1150.09,163.1h.1v-30h3.58v35.17h-4.47l-20.47-30.25h-.1v30.25h-3.58V133.14h4.47Z"/><path class="cls-4" d="M1177.86,168.31h-3.58v-32h-11.77v-3.18h27.12v3.18h-11.77Z"/></svg>