<svg id="Layer_1" class="logo my-4 ml-3" data-name="Layer 1" xmlns="http://www.w3.org/2000/svg" viewBox="0 0 1217.97 198.87"><defs><style>.cls-1{fill:none;stroke:#fff;stroke-miterlimit:10;}</style></defs><title>Artboard 6</title><polygon class="cls-1" points="153.33 29.31 153.33 179.08 50.53 71.62 50.53 170.41 29.16 170.41 29.16 19.79 131.96 127.25 131.96 29.31 153.33 29.31"/><polygon class="cls-1" points="277.24 49.41 220.76 49.41 221.33 83.25 275.55 83.25 275.55 103.35 221.46 103.35 220.76 150.31 277.24 150.31 277.24 170.41 199.39 170.41 199.39 29.31 277.24 29.31 277.24 49.41"/><path class="cls-1" d="M386.84,26.56h-.32c-.63,0-1.26,0-1.88,0l-1.85.08h-.2L381,26.8l-.36,0c-.49,0-1,.08-1.47.13l-.26,0c-1.14.12-2.28.27-3.41.45l-.22,0c-1.16.19-2.31.4-3.44.64-.6.12-1.2.25-1.79.39l-1.76.44c-.7.18-1.39.37-2.08.58-1.05.3-2.09.63-3.12,1l-1.7.6c-.55.2-1.12.42-1.67.64l-1.66.68-1.64.72c-.55.25-1.09.5-1.62.76s-1.07.52-1.6.79c-1,.51-2,1-3,1.59-.72.41-1.42.83-2.12,1.26-.37.22-.74.46-1.1.69-.53.33-1.06.68-1.58,1l-1.37,1c-1.07.74-2.11,1.52-3.13,2.34-.37.28-.73.57-1.1.87a74.62,74.62,0,0,0-6.49,6c-.41.41-.81.84-1.21,1.28s-.79.86-1.18,1.3c-.75.85-1.48,1.72-2.19,2.6-.39.49-.78,1-1.16,1.49s-.71.94-1.05,1.41-.69,1-1,1.44c-.67,1-1.31,1.95-1.93,2.95s-1.22,2-1.79,3L321,66.47a72,72,0,0,0-4.23,9.74c-.2.56-.39,1.13-.56,1.69a69.74,69.74,0,0,0-2.24,9c-.2,1.09-.37,2.19-.52,3.29-.1.75-.19,1.5-.26,2.26-.1,1-.18,2-.24,3.07-.06,1.27-.1,2.55-.1,3.83,0,18.19,5.29,33.85,15.87,46.54,13.75,16.92,35.75,27.28,57.11,27.28h.37l.37,0a75.3,75.3,0,0,0,38.31-10.77q2.28-1.38,4.45-2.9l1.43-1c.94-.7,1.88-1.43,2.78-2.17l1.35-1.12,0,0,1.3-1.15c.44-.39.87-.79,1.3-1.19s.84-.81,1.26-1.23.83-.83,1.23-1.25.81-.85,1.21-1.28.76-.84,1.13-1.27l.19-.21,1-1.16c.37-.45.75-.91,1.11-1.37s.72-.92,1.07-1.39.68-.9,1-1.36l1.25-1.8.74-1.12c.93-1.44,1.8-2.9,2.63-4.39l.57-1.06c.12-.23.25-.46.36-.69.27-.53.54-1.05.79-1.59.75-1.54,1.45-3.12,2.09-4.72.12-.3.24-.6.35-.9s.24-.61.35-.92a71.81,71.81,0,0,0,2.55-8.5c.13-.56.25-1.11.37-1.67.26-1.23.48-2.48.67-3.73.09-.52.16-1,.22-1.54a4,4,0,0,0,.06-.47c.16-1.17.28-2.35.37-3.53.14-1.86.21-3.75.21-5.65A73.58,73.58,0,0,0,386.84,26.56Zm52,74.8c-.7,29.15-23.49,51.7-52.86,51.7-12.06,0-24.74-5.07-34.48-13.54-11.63-10.36-17.34-23.48-17.34-40,0-.93,0-1.86.07-2.81a52.22,52.22,0,0,1,52.38-50.08c28.7,0,50.83,21.84,52.19,50.52,0,.94.06,1.88.06,2.8C438.87,100.43,438.87,100.89,438.85,101.36Z"/><rect class="cls-1" x="531.14" y="17.5" width="5.5" height="163.88"/><path class="cls-1" d="M616.69,71.56h-3.57V36.39h10.33a21.89,21.89,0,0,1,4.79.49,10.89,10.89,0,0,1,3.83,1.62,7.67,7.67,0,0,1,2.51,2.9,9.82,9.82,0,0,1,.89,4.38,8.58,8.58,0,0,1-.7,3.52,8.72,8.72,0,0,1-1.88,2.76,9,9,0,0,1-2.83,1.86,12.46,12.46,0,0,1-3.58.9l10.28,16.74h-4.37l-9.74-16.44h-6Zm0-19.52h6.21a12,12,0,0,0,6.66-1.57,5.26,5.26,0,0,0,2.33-4.69,6.07,6.07,0,0,0-.64-2.93,5.21,5.21,0,0,0-1.79-1.94,8.25,8.25,0,0,0-2.78-1.1,17.78,17.78,0,0,0-3.63-.34h-6.36Z"/><path class="cls-1" d="M649.93,68.38h18.82v3.18h-22.4V36.39h21.81v3.18H649.93V51.64h17v3.18h-17Z"/><path class="cls-1" d="M679,71.56h-3.93l15.2-35.17h3.48l15.1,35.17h-4L701,62.32H682.81ZM684.15,59h15.5L691.9,40.36Z"/><path class="cls-1" d="M721.06,68.38h16.39v3.18h-20V36.39h3.57Z"/><path class="cls-1" d="M764.58,68.38h18.83v3.18H761V36.39h21.81v3.18H764.58V51.64h17v3.18h-17Z"/><path class="cls-1" d="M810.93,42.05A8.73,8.73,0,0,0,808,39.49a9.08,9.08,0,0,0-4.33-1,9.39,9.39,0,0,0-2.63.4,7.61,7.61,0,0,0-2.43,1.22,6,6,0,0,0-2.44,5,5.4,5.4,0,0,0,.65,2.78,5.94,5.94,0,0,0,1.71,1.86A9.58,9.58,0,0,0,801,51c.91.33,1.86.66,2.85,1q1.83.59,3.69,1.29a13.16,13.16,0,0,1,3.35,1.81A8.74,8.74,0,0,1,813.26,58a8.93,8.93,0,0,1,.94,4.35,9.63,9.63,0,0,1-1,4.54A9.52,9.52,0,0,1,810.59,70a10.87,10.87,0,0,1-3.66,1.84,15.19,15.19,0,0,1-4.15.59,16.33,16.33,0,0,1-3.18-.32,14.68,14.68,0,0,1-3-1,12.27,12.27,0,0,1-2.68-1.64,11.83,11.83,0,0,1-2.19-2.28L794.78,65A9.43,9.43,0,0,0,798,68.11a9.07,9.07,0,0,0,4.84,1.26,9.44,9.44,0,0,0,2.73-.42,7.57,7.57,0,0,0,2.51-1.29,7,7,0,0,0,1.84-2.14,5.86,5.86,0,0,0,.72-2.95,5.92,5.92,0,0,0-.72-3.06,6.52,6.52,0,0,0-1.91-2,11.88,11.88,0,0,0-2.74-1.36c-1-.37-2.1-.73-3.23-1.09s-2.3-.78-3.42-1.25a11.23,11.23,0,0,1-3-1.81,8.35,8.35,0,0,1-2.17-2.76,9,9,0,0,1-.81-4,8.85,8.85,0,0,1,1-4.37,9.17,9.17,0,0,1,2.66-3A10.89,10.89,0,0,1,799.9,36a14.89,14.89,0,0,1,3.92-.55,13.59,13.59,0,0,1,6.11,1.27,10.44,10.44,0,0,1,3.83,3Z"/><path class="cls-1" d="M835.76,71.56h-3.57v-32H820.41V36.39h27.13v3.18H835.76Z"/><path class="cls-1" d="M853.05,71.56h-3.92l15.2-35.17h3.47l15.11,35.17h-4l-3.87-9.24H856.88ZM858.22,59h15.5L866,40.36Z"/><path class="cls-1" d="M899.85,71.56h-3.58v-32H884.5V36.39h27.12v3.18H899.85Z"/><path class="cls-1" d="M923.94,68.38h18.83v3.18H920.36V36.39h21.81v3.18H923.94V51.64h17v3.18h-17Z"/><path class="cls-1" d="M612.87,162.48h-3.93l15.2-35.17h3.48l15.1,35.17h-4l-3.88-9.24H616.69ZM618,150h15.5l-7.75-18.67Z"/><path class="cls-1" d="M677.15,133.67a12.82,12.82,0,0,0-4.37-3A14.74,14.74,0,0,0,667,129.6a14.36,14.36,0,0,0-6.08,1.24,13.88,13.88,0,0,0-4.6,3.34,15.21,15.21,0,0,0-2.9,4.89,17.29,17.29,0,0,0,0,11.7,14.8,14.8,0,0,0,2.9,4.87,14.11,14.11,0,0,0,4.6,3.32A14.52,14.52,0,0,0,667,160.2a21.76,21.76,0,0,0,5.47-.65,13.64,13.64,0,0,0,4-1.64V147.23h-8.19v-3.18H680v15.89a22.67,22.67,0,0,1-6.21,2.59,27.66,27.66,0,0,1-6.91.85,19.28,19.28,0,0,1-7.35-1.39,17.4,17.4,0,0,1-5.81-3.85,17.61,17.61,0,0,1-3.8-5.84,19.57,19.57,0,0,1-1.37-7.4,19.2,19.2,0,0,1,1.4-7.4,17.46,17.46,0,0,1,9.66-9.69,18.72,18.72,0,0,1,7.27-1.39,19.65,19.65,0,0,1,7.36,1.26,15.79,15.79,0,0,1,5.36,3.51Z"/><path class="cls-1" d="M696.22,159.3h18.83v3.18h-22.4V127.31h21.8v3.18H696.22v12.07h17v3.18h-17Z"/><path class="cls-1" d="M750.47,157.27h.1v-30h3.58v35.17h-4.47l-20.47-30.25h-.1v30.25h-3.58V127.31H730Z"/><path class="cls-1" d="M778.24,162.48h-3.58v-32H762.89v-3.18H790v3.18H778.24Z"/><path class="cls-1" d="M820.36,154.34l7.9,8.14h-5l-5-5.21a15.08,15.08,0,0,1-4.72,4.39,12.3,12.3,0,0,1-6.11,1.42,13.84,13.84,0,0,1-4.25-.65,10.56,10.56,0,0,1-3.5-1.86,8.63,8.63,0,0,1-2.36-3,9.61,9.61,0,0,1-.87-4.2,9.53,9.53,0,0,1,2.33-6.43,12.63,12.63,0,0,1,2.59-2.26,20.29,20.29,0,0,1,3.23-1.74,22.38,22.38,0,0,1-1.57-1.74,15,15,0,0,1-1.36-2,10.49,10.49,0,0,1-1-2.16,7.45,7.45,0,0,1-.38-2.34,8.35,8.35,0,0,1,.7-3.52,7.56,7.56,0,0,1,1.89-2.61,8.11,8.11,0,0,1,2.78-1.62,10.41,10.41,0,0,1,3.38-.54,10,10,0,0,1,3.27.52,8,8,0,0,1,2.71,1.54A7.34,7.34,0,0,1,817,131a8,8,0,0,1,.67,3.36,7.08,7.08,0,0,1-.67,3.13,9.1,9.1,0,0,1-1.79,2.5,13.47,13.47,0,0,1-2.53,2q-1.41.87-2.91,1.62l8.2,8.44,4.87-8.54h4Zm-13.71-9.14a13.35,13.35,0,0,0-4.82,3.4,7.24,7.24,0,0,0-1.63,4.79,6.41,6.41,0,0,0,.57,2.73,6.08,6.08,0,0,0,1.59,2.12,7.52,7.52,0,0,0,2.36,1.36,8.06,8.06,0,0,0,2.83.5,8.37,8.37,0,0,0,4.79-1.29,13.23,13.23,0,0,0,3.6-3.88Zm7.5-10.88a4.81,4.81,0,0,0-1.41-3.58,4.86,4.86,0,0,0-3.55-1.39,5.25,5.25,0,0,0-3.83,1.46,5.66,5.66,0,0,0-1.09,5.92,9.61,9.61,0,0,0,1,1.91,14.25,14.25,0,0,0,1.27,1.64,10.86,10.86,0,0,0,1.17,1.14A24.64,24.64,0,0,0,810,140.2a11.76,11.76,0,0,0,2.06-1.51,7,7,0,0,0,1.49-1.94A5.18,5.18,0,0,0,814.15,134.32Z"/><path class="cls-1" d="M866.81,156.77a15,15,0,0,1-2.16,2.54,14.32,14.32,0,0,1-2.93,2.1,16.49,16.49,0,0,1-3.68,1.44,17.32,17.32,0,0,1-4.39.53,19.33,19.33,0,0,1-7.36-1.39,17.4,17.4,0,0,1-5.81-3.85,17.61,17.61,0,0,1-3.8-5.84,19.57,19.57,0,0,1-1.36-7.4,19.2,19.2,0,0,1,1.39-7.4,17.48,17.48,0,0,1,3.85-5.84,17.71,17.71,0,0,1,5.81-3.85,18.73,18.73,0,0,1,7.28-1.39,17.9,17.9,0,0,1,3.8.4A17.71,17.71,0,0,1,861,128a15.06,15.06,0,0,1,3,1.75,10.39,10.39,0,0,1,2.23,2.32l-3,2.19a8.8,8.8,0,0,0-1.46-1.69,9.93,9.93,0,0,0-2.16-1.49,13.25,13.25,0,0,0-2.71-1,11.82,11.82,0,0,0-3.15-.4,14.55,14.55,0,0,0-6.14,1.24,13.56,13.56,0,0,0-4.59,3.34,14.69,14.69,0,0,0-2.89,4.88,17.18,17.18,0,0,0-1,5.84,16.81,16.81,0,0,0,1,5.84,14.9,14.9,0,0,0,2.91,4.88,13.84,13.84,0,0,0,4.59,3.34,14.41,14.41,0,0,0,6.09,1.24,13.87,13.87,0,0,0,5.76-1.24,11,11,0,0,0,4.57-4Z"/><path class="cls-1" d="M910.62,144.9a19.2,19.2,0,0,1-1.39,7.4,17.46,17.46,0,0,1-9.66,9.69A19.73,19.73,0,0,1,885,162a17.43,17.43,0,0,1-9.67-9.69,20.39,20.39,0,0,1,0-14.8,17.43,17.43,0,0,1,9.67-9.69,19.73,19.73,0,0,1,14.55,0,17.71,17.71,0,0,1,5.81,3.85,17.48,17.48,0,0,1,3.85,5.84A19.2,19.2,0,0,1,910.62,144.9Zm-3.77,0a17.28,17.28,0,0,0-1-5.85,14.83,14.83,0,0,0-2.89-4.89,13.84,13.84,0,0,0-4.59-3.34,15.55,15.55,0,0,0-12.17,0,13.88,13.88,0,0,0-4.6,3.34,14.64,14.64,0,0,0-2.88,4.89,17.78,17.78,0,0,0,0,11.7,14.26,14.26,0,0,0,2.88,4.87,14.11,14.11,0,0,0,4.6,3.32,15.55,15.55,0,0,0,12.17,0,14.07,14.07,0,0,0,4.59-3.32,14.44,14.44,0,0,0,2.89-4.87A17.28,17.28,0,0,0,906.85,144.92Z"/><path class="cls-1" d="M946.49,157.27h.1v-30h3.58v35.17H945.7l-20.47-30.25h-.1v30.25h-3.58V127.31H926Z"/><path class="cls-1" d="M980,133a8.53,8.53,0,0,0-2.93-2.56,8.9,8.9,0,0,0-4.32-1,9,9,0,0,0-2.63.4,7.64,7.64,0,0,0-2.44,1.21,6.38,6.38,0,0,0-1.76,2.06,6.08,6.08,0,0,0-.67,2.94,5.42,5.42,0,0,0,.64,2.78,6.06,6.06,0,0,0,1.71,1.86,10,10,0,0,0,2.43,1.27q1.37.5,2.85,1,1.83.6,3.69,1.29a13.26,13.26,0,0,1,3.34,1.82,8.79,8.79,0,0,1,2.43,2.83,8.91,8.91,0,0,1,.94,4.34,9.76,9.76,0,0,1-1,4.55,9.48,9.48,0,0,1-2.61,3.15,10.83,10.83,0,0,1-3.67,1.84,14.72,14.72,0,0,1-4.15.6,15.44,15.44,0,0,1-3.17-.33,14.08,14.08,0,0,1-3-1,12.06,12.06,0,0,1-4.87-3.93l3.08-2.28a9.37,9.37,0,0,0,3.2,3.15,9.52,9.52,0,0,0,7.58.84,7.58,7.58,0,0,0,2.51-1.29,7.11,7.11,0,0,0,1.83-2.13,6.63,6.63,0,0,0,0-6,6.41,6.41,0,0,0-1.91-2,11.82,11.82,0,0,0-2.73-1.37c-1-.36-2.1-.72-3.23-1.09s-2.3-.78-3.43-1.24a11.82,11.82,0,0,1-3-1.81,8.67,8.67,0,0,1-2.16-2.76,10.08,10.08,0,0,1,.2-8.4,9.25,9.25,0,0,1,2.66-3A11.33,11.33,0,0,1,969,127a15,15,0,0,1,3.93-.54,13.62,13.62,0,0,1,6.11,1.26,10.5,10.5,0,0,1,3.82,3Z"/><path class="cls-1" d="M1007.44,163.38a13.6,13.6,0,0,1-6.5-1.37,11.68,11.68,0,0,1-4-3.45,12.75,12.75,0,0,1-2.06-4.55,20.55,20.55,0,0,1-.57-4.64V127.31h3.58V149a17.27,17.27,0,0,0,.49,4.15,10.34,10.34,0,0,0,1.62,3.58,8.38,8.38,0,0,0,2.95,2.53,11,11,0,0,0,9,0,8.42,8.42,0,0,0,3-2.53,10.51,10.51,0,0,0,1.61-3.58,17.27,17.27,0,0,0,.5-4.15V127.31h3.58v22.06A20.55,20.55,0,0,1,1020,154a12.77,12.77,0,0,1-2.07,4.55,11.53,11.53,0,0,1-4,3.45A13.72,13.72,0,0,1,1007.44,163.38Z"/><path class="cls-1" d="M1036.8,159.3h16.39v3.18h-20V127.31h3.58Z"/><path class="cls-1" d="M1068.54,162.48H1065v-32h-11.78v-3.18h27.13v3.18h-11.78Z"/><path class="cls-1" d="M1085.83,162.48h-3.92l15.2-35.17h3.47l15.11,35.17h-4l-3.87-9.24h-18.18ZM1091,150h15.5l-7.75-18.67Z"/><path class="cls-1" d="M1149.27,157.27h.1v-30h3.57v35.17h-4.47L1128,132.23h-.1v30.25h-3.58V127.31h4.47Z"/><path class="cls-1" d="M1177,162.48h-3.58v-32h-11.77v-3.18h27.12v3.18H1177Z"/></svg>